<svg xmlns="http://www.w3.org/2000/svg" viewBox="0 0 24 30" fill="none" x="0px" y="0px"><path fill-rule="evenodd" clip-rule="evenodd" d="M12.3901 3.06167C12.1369 2.97628 11.8631 2.97628 11.6099 3.06167L4.82386 5.35016C4.28408 5.5322 3.93738 6.06413 3.98463 6.63778L4.76054 16.0577C4.79285 16.4499 5.00616 16.8038 5.33607 17.0124L11.3462 20.8127C11.7462 21.0656 12.2538 21.0656 12.6538 20.8127L18.6639 17.0124C18.9938 16.8038 19.2072 16.4499 19.2395 16.0577L20.0154 6.63778C20.0626 6.06413 19.7159 5.5322 19.1761 5.35016L12.3901 3.06167ZM11.1418 1.6409C11.6989 1.45303 12.3011 1.45303 12.8582 1.6409L19.6443 3.92939C20.8318 4.32987 21.5945 5.50012 21.4906 6.76215L20.7146 16.1821C20.6436 17.045 20.1743 17.8234 19.4485 18.2824L13.4384 22.0827C12.5583 22.6391 11.4417 22.6391 10.5616 22.0827L4.55151 18.2824C3.82571 17.8234 3.35644 17.045 3.28536 16.1821L2.50945 6.76215C2.4055 5.50012 3.16823 4.32987 4.35575 3.92939L11.1418 1.6409Z" fill="black"/><path fill-rule="evenodd" clip-rule="evenodd" d="M12.9195 5.67353C12.3253 5.45713 11.6751 5.45713 11.081 5.67353L8.23024 6.71181C7.08094 7.13041 6.34968 8.27423 6.44365 9.50638L6.80285 14.2162C6.86657 15.0516 7.30388 15.8119 7.99035 16.2807L10.4819 17.9821C11.3994 18.6087 12.6011 18.6087 13.5186 17.9821L16.0101 16.2807C16.6966 15.8119 17.1339 15.0516 17.1976 14.2162L17.5568 9.50638C17.6508 8.27423 16.9195 7.13041 15.7702 6.71181L12.9195 5.67353Z" fill="black"/><text x="0" y="39" fill="#000000" font-size="5px" font-weight="bold" font-family="'Helvetica Neue', Helvetica, Arial-Unicode, Arial, Sans-serif">Created by Reza Nur</text><text x="0" y="44" fill="#000000" font-size="5px" font-weight="bold" font-family="'Helvetica Neue', Helvetica, Arial-Unicode, Arial, Sans-serif">from the Noun Project</text></svg>