<svg xmlns="http://www.w3.org/2000/svg" viewBox="0 0 24 40" fill="none" x="0px" y="0px"><path d="M17.6961 1.24932C17.8089 0.811232 17.6135 0.351986 17.2197 0.129413C16.8258 -0.0931594 16.3316 -0.0236196 16.0145 0.298992L0.286847 16.299C0.00440904 16.5863 -0.0780113 17.0151 0.0777681 17.3866C0.233547 17.7582 0.597096 18 0.999997 18H6.95496L1.39578 30.5962C1.20668 31.0247 1.34029 31.5271 1.7173 31.8049C2.0943 32.0828 2.61367 32.0619 2.96701 31.7544L23.6564 13.7544C23.9711 13.4807 24.0828 13.0403 23.9366 12.6496C23.7904 12.2589 23.4171 12 23 12H14.9284L17.6961 1.24932Z" fill="black"/><text x="0" y="47" fill="#000000" font-size="5px" font-weight="bold" font-family="'Helvetica Neue', Helvetica, Arial-Unicode, Arial, Sans-serif">Created by Heztasia</text><text x="0" y="52" fill="#000000" font-size="5px" font-weight="bold" font-family="'Helvetica Neue', Helvetica, Arial-Unicode, Arial, Sans-serif">from the Noun Project</text></svg>