<svg xmlns="http://www.w3.org/2000/svg" viewBox="0 0 24 30" fill="none" x="0px" y="0px"><path fill-rule="evenodd" clip-rule="evenodd" d="M6.03033 17.9697C6.32322 18.2626 6.32322 18.7374 6.03033 19.0303L2.53033 22.5303C2.23744 22.8232 1.76256 22.8232 1.46967 22.5303C1.17678 22.2374 1.17678 21.7626 1.46967 21.4697L4.96967 17.9697C5.26256 17.6768 5.73744 17.6768 6.03033 17.9697Z" fill="black"/><path fill-rule="evenodd" clip-rule="evenodd" d="M22.7236 2.19736C22.7944 1.9377 22.7206 1.66 22.5303 1.46969C22.34 1.27937 22.0623 1.20563 21.8027 1.27644L16.8952 2.61484C16.3643 2.75964 15.889 3.06042 15.5308 3.47826L3.93056 17.0119C3.67551 17.3095 3.69256 17.7532 3.96967 18.0303L5.96967 20.0303C6.24679 20.3075 6.69054 20.3245 6.9881 20.0695L20.5218 8.46918C20.9396 8.11102 21.2404 7.63574 21.3852 7.1048L22.7236 2.19736Z" fill="black"/><path fill-rule="evenodd" clip-rule="evenodd" d="M2.46967 15.4697C2.76256 15.1768 3.23744 15.1768 3.53033 15.4697L8.53033 20.4697C8.82322 20.7626 8.82322 21.2374 8.53033 21.5303C8.23744 21.8232 7.76256 21.8232 7.46967 21.5303L2.46967 16.5303C2.17678 16.2374 2.17678 15.7626 2.46967 15.4697Z" fill="black"/><path fill-rule="evenodd" clip-rule="evenodd" d="M5.46967 6.46967C5.76256 6.17678 6.23744 6.17678 6.53033 6.46967L8.53033 8.46967C8.82322 8.76256 8.82322 9.23744 8.53033 9.53033C8.23744 9.82322 7.76256 9.82322 7.46967 9.53033L6 8.06066L4.53033 9.53033C4.23744 9.82322 3.76256 9.82322 3.46967 9.53033C3.17678 9.23744 3.17678 8.76256 3.46967 8.46967L5.46967 6.46967Z" fill="black"/><path fill-rule="evenodd" clip-rule="evenodd" d="M6 6.25C6.41421 6.25 6.75 6.58579 6.75 7V11C6.75 11.4142 6.41421 11.75 6 11.75C5.58579 11.75 5.25 11.4142 5.25 11V7C5.25 6.58579 5.58579 6.25 6 6.25Z" fill="black"/><text x="0" y="39" fill="#000000" font-size="5px" font-weight="bold" font-family="'Helvetica Neue', Helvetica, Arial-Unicode, Arial, Sans-serif">Created by Reza Nur</text><text x="0" y="44" fill="#000000" font-size="5px" font-weight="bold" font-family="'Helvetica Neue', Helvetica, Arial-Unicode, Arial, Sans-serif">from the Noun Project</text></svg>