<svg xmlns="http://www.w3.org/2000/svg" viewBox="0 0 24 30" fill="none" x="0px" y="0px"><path fill-rule="evenodd" clip-rule="evenodd" d="M12.8582 1.6409C12.3011 1.45303 11.6989 1.45303 11.1418 1.6409L4.35575 3.92939C3.16823 4.32987 2.4055 5.50012 2.50945 6.76215L3.28536 16.1821C3.35644 17.045 3.82571 17.8234 4.55151 18.2824L10.5616 22.0827C11.4417 22.6391 12.5583 22.6391 13.4383 22.0827L19.4485 18.2824C20.1743 17.8234 20.6436 17.045 20.7146 16.1821L21.4906 6.76215C21.5945 5.50012 20.8318 4.32987 19.6443 3.92939L12.8582 1.6409ZM12.2833 9.43616C12.3706 9.4727 12.4524 9.52687 12.5234 9.59867L14.4971 11.5955C14.7862 11.8879 14.7862 12.362 14.4971 12.6545C14.2081 12.9469 13.7394 12.9469 13.4504 12.6545L12.7402 11.9359V14.1218C12.7402 14.5354 12.4088 14.8706 12 14.8706C11.5912 14.8706 11.2599 14.5354 11.2599 14.1218V11.9359L10.5496 12.6545C10.2606 12.9469 9.79197 12.9469 9.50292 12.6545C9.21388 12.362 9.21388 11.8879 9.50292 11.5955L11.5027 9.55485M12.2833 9.43616C12.1961 9.39955 12.1004 9.37934 12 9.37934C11.8997 9.37934 11.804 9.39955 11.7167 9.43616C11.6314 9.47187 11.5726 9.48547 11.5027 9.55485" fill="black"/><text x="0" y="39" fill="#000000" font-size="5px" font-weight="bold" font-family="'Helvetica Neue', Helvetica, Arial-Unicode, Arial, Sans-serif">Created by Reza Nur</text><text x="0" y="44" fill="#000000" font-size="5px" font-weight="bold" font-family="'Helvetica Neue', Helvetica, Arial-Unicode, Arial, Sans-serif">from the Noun Project</text></svg>